<mxfile host="app.diagrams.net" agent="Mozilla/5.0 (Windows NT 10.0; Win64; x64) AppleWebKit/537.36 (KHTML, like Gecko) Chrome/138.0.0.0 Safari/537.36 Edg/138.0.0.0" version="27.1.4">
  <diagram name="Page-1" id="rTOkUkU8UgdPhAgni8Ge">
    <mxGraphModel dx="2268" dy="798" grid="1" gridSize="10" guides="1" tooltips="1" connect="1" arrows="1" fold="1" page="1" pageScale="1" pageWidth="850" pageHeight="1100" math="0" shadow="0">
      <root>
        <mxCell id="0" />
        <mxCell id="1" parent="0" />
        <mxCell id="GknLjMqiST1VWsNk8aQ6-3" value="" style="verticalLabelPosition=bottom;shadow=0;dashed=0;align=center;html=1;verticalAlign=top;strokeWidth=1;shape=mxgraph.mockup.graphics.simpleIcon;strokeColor=#999999;" vertex="1" parent="1">
          <mxGeometry x="-850" y="80" width="850" height="250" as="geometry" />
        </mxCell>
        <mxCell id="GknLjMqiST1VWsNk8aQ6-11" value="" style="rounded=1;whiteSpace=wrap;html=1;movable=1;resizable=1;rotatable=1;deletable=1;editable=1;locked=0;connectable=1;" vertex="1" parent="1">
          <mxGeometry x="-480" y="232.5" width="120" height="35" as="geometry" />
        </mxCell>
        <mxCell id="GknLjMqiST1VWsNk8aQ6-1" value="" style="rounded=0;whiteSpace=wrap;html=1;" vertex="1" parent="1">
          <mxGeometry x="-850" width="850" height="80" as="geometry" />
        </mxCell>
        <mxCell id="GknLjMqiST1VWsNk8aQ6-2" value="" style="rounded=0;whiteSpace=wrap;html=1;" vertex="1" parent="1">
          <mxGeometry x="-850" y="720" width="850" height="80" as="geometry" />
        </mxCell>
        <mxCell id="GknLjMqiST1VWsNk8aQ6-4" value="&lt;font style=&quot;font-size: 22px;&quot;&gt;Paraguay Meals&lt;/font&gt;" style="text;html=1;align=center;verticalAlign=middle;whiteSpace=wrap;rounded=0;" vertex="1" parent="1">
          <mxGeometry x="-770" y="25" width="170" height="30" as="geometry" />
        </mxCell>
        <mxCell id="GknLjMqiST1VWsNk8aQ6-5" value="" style="verticalLabelPosition=bottom;shadow=0;dashed=0;align=center;html=1;verticalAlign=top;strokeWidth=1;shape=mxgraph.mockup.graphics.simpleIcon;strokeColor=#999999;" vertex="1" parent="1">
          <mxGeometry x="-830" y="15" width="50" height="50" as="geometry" />
        </mxCell>
        <mxCell id="GknLjMqiST1VWsNk8aQ6-6" value="&lt;font style=&quot;font-size: 22px;&quot;&gt;Menu&lt;/font&gt;" style="text;html=1;align=center;verticalAlign=middle;whiteSpace=wrap;rounded=0;" vertex="1" parent="1">
          <mxGeometry x="-220" y="25" width="80" height="30" as="geometry" />
        </mxCell>
        <mxCell id="GknLjMqiST1VWsNk8aQ6-7" value="&lt;font style=&quot;font-size: 22px;&quot;&gt;Activities&lt;/font&gt;" style="text;html=1;align=center;verticalAlign=middle;whiteSpace=wrap;rounded=0;" vertex="1" parent="1">
          <mxGeometry x="-120" y="25" width="80" height="30" as="geometry" />
        </mxCell>
        <mxCell id="GknLjMqiST1VWsNk8aQ6-9" value="" style="rounded=0;whiteSpace=wrap;html=1;" vertex="1" parent="1">
          <mxGeometry x="-800" y="360" width="750" height="160" as="geometry" />
        </mxCell>
        <mxCell id="GknLjMqiST1VWsNk8aQ6-10" value="Open the Menu" style="text;html=1;align=center;verticalAlign=middle;whiteSpace=wrap;rounded=0;movable=1;resizable=1;rotatable=1;deletable=1;editable=1;locked=0;connectable=1;" vertex="1" parent="1">
          <mxGeometry x="-475" y="235" width="110" height="30" as="geometry" />
        </mxCell>
        <mxCell id="GknLjMqiST1VWsNk8aQ6-15" value="&lt;span style=&quot;text-align: left;&quot;&gt;Lorem ipsum dolor sit amet, consectetur adipisicing elit, sed do eiusmod tempor incididunt ut labore et dolore magna aliqua.&lt;/span&gt;" style="text;html=1;align=center;verticalAlign=middle;whiteSpace=wrap;rounded=0;" vertex="1" parent="1">
          <mxGeometry x="-540" y="142.5" width="240" height="60" as="geometry" />
        </mxCell>
        <mxCell id="GknLjMqiST1VWsNk8aQ6-17" value="" style="verticalLabelPosition=bottom;shadow=0;dashed=0;align=center;html=1;verticalAlign=top;strokeWidth=1;shape=mxgraph.mockup.graphics.simpleIcon;strokeColor=#999999;" vertex="1" parent="1">
          <mxGeometry x="-760" y="375" width="200" height="130" as="geometry" />
        </mxCell>
        <mxCell id="GknLjMqiST1VWsNk8aQ6-18" value="&lt;span style=&quot;text-align: left;&quot;&gt;Lorem ipsum dolor sit amet, consectetur adipisicing elit, sed do eiusmod tempor incididunt ut labore et dolore magna aliqua.&lt;/span&gt;" style="text;html=1;align=center;verticalAlign=middle;whiteSpace=wrap;rounded=0;" vertex="1" parent="1">
          <mxGeometry x="-410" y="410" width="240" height="60" as="geometry" />
        </mxCell>
        <mxCell id="GknLjMqiST1VWsNk8aQ6-19" value="Map" style="text;html=1;align=center;verticalAlign=middle;whiteSpace=wrap;rounded=0;movable=1;resizable=1;rotatable=1;deletable=1;editable=1;locked=0;connectable=1;" vertex="1" parent="1">
          <mxGeometry x="-715" y="425" width="110" height="30" as="geometry" />
        </mxCell>
        <mxCell id="GknLjMqiST1VWsNk8aQ6-20" value="" style="rounded=0;whiteSpace=wrap;html=1;" vertex="1" parent="1">
          <mxGeometry x="-800" y="530" width="750" height="160" as="geometry" />
        </mxCell>
        <mxCell id="GknLjMqiST1VWsNk8aQ6-21" value="" style="verticalLabelPosition=bottom;shadow=0;dashed=0;align=center;html=1;verticalAlign=top;strokeWidth=1;shape=mxgraph.mockup.graphics.simpleIcon;strokeColor=#999999;" vertex="1" parent="1">
          <mxGeometry x="-760" y="545" width="200" height="130" as="geometry" />
        </mxCell>
        <mxCell id="GknLjMqiST1VWsNk8aQ6-22" value="&lt;span style=&quot;text-align: left;&quot;&gt;Lorem ipsum dolor sit amet, consectetur adipisicing elit, sed do eiusmod tempor incididunt ut labore et dolore magna aliqua.&lt;/span&gt;" style="text;html=1;align=center;verticalAlign=middle;whiteSpace=wrap;rounded=0;" vertex="1" parent="1">
          <mxGeometry x="-410" y="580" width="240" height="60" as="geometry" />
        </mxCell>
        <mxCell id="GknLjMqiST1VWsNk8aQ6-23" value="Activities" style="text;html=1;align=center;verticalAlign=middle;whiteSpace=wrap;rounded=0;movable=1;resizable=1;rotatable=1;deletable=1;editable=1;locked=0;connectable=1;" vertex="1" parent="1">
          <mxGeometry x="-715" y="595" width="110" height="30" as="geometry" />
        </mxCell>
        <mxCell id="GknLjMqiST1VWsNk8aQ6-24" value="" style="verticalLabelPosition=bottom;shadow=0;dashed=0;align=center;html=1;verticalAlign=top;strokeWidth=1;shape=mxgraph.mockup.graphics.simpleIcon;strokeColor=#999999;" vertex="1" parent="1">
          <mxGeometry x="-230" y="735" width="50" height="50" as="geometry" />
        </mxCell>
        <mxCell id="GknLjMqiST1VWsNk8aQ6-25" value="" style="verticalLabelPosition=bottom;shadow=0;dashed=0;align=center;html=1;verticalAlign=top;strokeWidth=1;shape=mxgraph.mockup.graphics.simpleIcon;strokeColor=#999999;" vertex="1" parent="1">
          <mxGeometry x="-150" y="735" width="50" height="50" as="geometry" />
        </mxCell>
        <mxCell id="GknLjMqiST1VWsNk8aQ6-26" value="" style="verticalLabelPosition=bottom;shadow=0;dashed=0;align=center;html=1;verticalAlign=top;strokeWidth=1;shape=mxgraph.mockup.graphics.simpleIcon;strokeColor=#999999;" vertex="1" parent="1">
          <mxGeometry x="-70" y="735" width="50" height="50" as="geometry" />
        </mxCell>
        <mxCell id="GknLjMqiST1VWsNk8aQ6-27" value="&lt;span style=&quot;text-align: left;&quot;&gt;Lorem ipsum dolor sit amet, consectetur adipisicing elit, sed do eiusmod tempor incididunt ut labore et dolore magna aliqua.&lt;/span&gt;" style="text;html=1;align=center;verticalAlign=middle;whiteSpace=wrap;rounded=0;" vertex="1" parent="1">
          <mxGeometry x="-820" y="730" width="240" height="60" as="geometry" />
        </mxCell>
      </root>
    </mxGraphModel>
  </diagram>
</mxfile>
